# xmcd CD database file
#
# Track frame offsets:
# 150
# 11015
# 19791
# 29070
# 39677
# 49125
# 60112
# 70320
# 81251
# 91709
# 100929
# 110769
# 124059
# 132958
# 143689
# 157477
# 167943
# 180095
#
# Disc length: 2559 seconds
# Revision: 20
# Processed by: cddbd v1.5.2PL0 Copyright (c) Steve Scherf et al.
# Submitted via: MusicBin 0.4
#
DISCID=f409fd12
DTITLE=Beatles - Mono Masters [CD1]
DYEAR=2009
DGENRE=Rock
TTITLE0=Love Me Do (Original Single Version) (Mono)
TTITLE1=From Me to You (Mono)
TTITLE2=Thank You Girl (Mono)
TTITLE3=She Loves You (Mono)
TTITLE4=I'll Get You (Mono)
TTITLE5=I Want to Hold Your Hand (Mono)
TTITLE6=This Boy (Mono)
TTITLE7=Komm, Gib Mir Deine Hand (Mono)
TTITLE8=Sie Liebt Dich (Mono)
TTITLE9=Long Tall Sally (Mono)
TTITLE10=I Call Your Name (Mono)
TTITLE11=Slow Down (Mono)
TTITLE12=Matchbox (Mono)
TTITLE13=I Feel Fine (Mono)
TTITLE14=She's a Woman (Mono)
TTITLE15=Bad Boy (Mono)
TTITLE16=Yes It Is (Mono)
TTITLE17=I'm Down (Mono)
EXTD=
EXTT0=YEAR: 1962
EXTT1=YEAR: 1963
EXTT2=YEAR: 1963
EXTT3=YEAR: 1963
EXTT4=YEAR: 1963
EXTT5=YEAR: 1963
EXTT6=YEAR: 1963
EXTT7=YEAR: 1964
EXTT8=YEAR: 1964
EXTT9=YEAR: 1964
EXTT10=YEAR: 1964
EXTT11=YEAR: 1964
EXTT12=YEAR: 1964
EXTT13=YEAR: 1964
EXTT14=YEAR: 1964
EXTT15=YEAR: 1965
EXTT16=YEAR: 1965
EXTT17=YEAR: 1965
PLAYORDER=
